# xmcd CD database file
#
# Track frame offsets:
#	150
#	16605
#	33830
#	53121
#	70320
#	89917
#	98511
#	117035
#	130457
#	139286
#	162891
#	178646
#
# Disc length: 2736 seconds
#
# Revision: 0
# Processed by: cddbd v1.5.2PL0 Copyright (c) Steve Scherf et al.
# Submitted via: CDex 1.70beta2
#
DISCID=9c0aae0c
DTITLE=Fada - La caresse du clown
DYEAR=2009
DGENRE=Jazz
TTITLE0=Croix de bois, croix de fer
TTITLE1=Le grain de sable
TTITLE2=Starbuck
TTITLE3=Le fantassin
TTITLE4=Laura
TTITLE5=Dillon Silla (entracte)
TTITLE6=Birkin, l'utlime circonvolution
TTITLE7=La crise (part 1)
TTITLE8=La crise (part 2)
TTITLE9=La caresse du clown
TTITLE10=Aime le mot dit
TTITLE11=Impro #2
EXTD=YEAR: 2009
EXTT0=
EXTT1=
EXTT2=
EXTT3=
EXTT4=
EXTT5=
EXTT6=
EXTT7=
EXTT8=
EXTT9=
EXTT10=
EXTT11=
PLAYORDER=
